<svg width="2503" height="925" viewBox="0 0 2503 925" fill="none" xmlns="http://www.w3.org/2000/svg">
<rect width="2503" height="925" fill="white"/>
<path d="M1201.69 381.125L1174.5 460H1158.06L1192.31 369H1202.81L1201.69 381.125ZM1224.44 460L1197.19 381.125L1196 369H1206.56L1240.94 460H1224.44ZM1223.12 426.25V438.688H1173.62V426.25H1223.12ZM1348.91 369V460H1333.22L1292.41 394.812V460H1276.72V369H1292.41L1333.35 434.312V369H1348.91ZM1419.64 460H1400.2L1400.32 447.562H1419.64C1425.26 447.562 1429.97 446.333 1433.76 443.875C1437.6 441.417 1440.47 437.896 1442.39 433.312C1444.35 428.729 1445.32 423.271 1445.32 416.938V412C1445.32 407.083 1444.76 402.729 1443.64 398.938C1442.55 395.146 1440.93 391.958 1438.76 389.375C1436.64 386.792 1434.01 384.833 1430.89 383.5C1427.8 382.167 1424.24 381.5 1420.2 381.5H1399.82V369H1420.2C1426.24 369 1431.76 370.021 1436.76 372.062C1441.76 374.062 1446.07 376.958 1449.7 380.75C1453.37 384.542 1456.18 389.083 1458.14 394.375C1460.1 399.667 1461.07 405.583 1461.07 412.125V416.938C1461.07 423.479 1460.1 429.396 1458.14 434.688C1456.18 439.979 1453.37 444.521 1449.7 448.312C1446.03 452.062 1441.66 454.958 1436.57 457C1431.53 459 1425.89 460 1419.64 460ZM1408.89 369V460H1393.2V369H1408.89ZM1561.99 447.562V460H1513.67V447.562H1561.99ZM1518.11 369V460H1502.42V369H1518.11ZM1555.67 407V419.25H1513.67V407H1555.67ZM1561.67 369V381.5H1513.67V369H1561.67ZM1600.4 369H1632.59C1639.5 369 1645.4 370.042 1650.27 372.125C1655.15 374.208 1658.88 377.292 1661.46 381.375C1664.09 385.417 1665.4 390.417 1665.4 396.375C1665.4 400.917 1664.57 404.917 1662.9 408.375C1661.23 411.833 1658.88 414.75 1655.84 417.125C1652.8 419.458 1649.17 421.271 1644.96 422.562L1640.21 424.875H1611.27L1611.15 412.438H1632.84C1636.59 412.438 1639.71 411.771 1642.21 410.438C1644.71 409.104 1646.59 407.292 1647.84 405C1649.13 402.667 1649.77 400.042 1649.77 397.125C1649.77 393.958 1649.15 391.208 1647.9 388.875C1646.69 386.5 1644.82 384.688 1642.27 383.438C1639.73 382.146 1636.5 381.5 1632.59 381.5H1616.09V460H1600.4V369ZM1652.34 460L1630.96 419.125L1647.4 419.062L1669.09 459.188V460H1652.34ZM1754.5 436.562C1754.5 434.688 1754.21 433.021 1753.62 431.562C1753.08 430.104 1752.1 428.771 1750.69 427.562C1749.27 426.354 1747.27 425.188 1744.69 424.062C1742.15 422.896 1738.9 421.708 1734.94 420.5C1730.6 419.167 1726.6 417.688 1722.94 416.062C1719.31 414.396 1716.15 412.479 1713.44 410.312C1710.73 408.104 1708.62 405.583 1707.12 402.75C1705.62 399.875 1704.88 396.562 1704.88 392.812C1704.88 389.104 1705.65 385.729 1707.19 382.688C1708.77 379.646 1711 377.021 1713.88 374.812C1716.79 372.562 1720.23 370.833 1724.19 369.625C1728.15 368.375 1732.52 367.75 1737.31 367.75C1744.06 367.75 1749.88 369 1754.75 371.5C1759.67 374 1763.44 377.354 1766.06 381.562C1768.73 385.771 1770.06 390.417 1770.06 395.5H1754.5C1754.5 392.5 1753.85 389.854 1752.56 387.562C1751.31 385.229 1749.4 383.396 1746.81 382.062C1744.27 380.729 1741.04 380.062 1737.12 380.062C1733.42 380.062 1730.33 380.625 1727.88 381.75C1725.42 382.875 1723.58 384.396 1722.38 386.312C1721.17 388.229 1720.56 390.396 1720.56 392.812C1720.56 394.521 1720.96 396.083 1721.75 397.5C1722.54 398.875 1723.75 400.167 1725.38 401.375C1727 402.542 1729.04 403.646 1731.5 404.688C1733.96 405.729 1736.85 406.729 1740.19 407.688C1745.23 409.188 1749.62 410.854 1753.38 412.688C1757.12 414.479 1760.25 416.521 1762.75 418.812C1765.25 421.104 1767.12 423.708 1768.38 426.625C1769.62 429.5 1770.25 432.771 1770.25 436.438C1770.25 440.271 1769.48 443.729 1767.94 446.812C1766.4 449.854 1764.19 452.458 1761.31 454.625C1758.48 456.75 1755.06 458.396 1751.06 459.562C1747.1 460.688 1742.69 461.25 1737.81 461.25C1733.44 461.25 1729.12 460.667 1724.88 459.5C1720.67 458.333 1716.83 456.562 1713.38 454.188C1709.92 451.771 1707.17 448.771 1705.12 445.188C1703.08 441.562 1702.06 437.333 1702.06 432.5H1717.75C1717.75 435.458 1718.25 437.979 1719.25 440.062C1720.29 442.146 1721.73 443.854 1723.56 445.188C1725.4 446.479 1727.52 447.438 1729.94 448.062C1732.4 448.688 1735.02 449 1737.81 449C1741.48 449 1744.54 448.479 1747 447.438C1749.5 446.396 1751.38 444.938 1752.62 443.062C1753.88 441.188 1754.5 439.021 1754.5 436.562ZM1882.29 412V417C1882.29 423.875 1881.39 430.042 1879.6 435.5C1877.81 440.958 1875.25 445.604 1871.91 449.438C1868.62 453.271 1864.66 456.208 1860.04 458.25C1855.41 460.25 1850.29 461.25 1844.66 461.25C1839.08 461.25 1833.97 460.25 1829.35 458.25C1824.77 456.208 1820.79 453.271 1817.41 449.438C1814.04 445.604 1811.41 440.958 1809.54 435.5C1807.7 430.042 1806.79 423.875 1806.79 417V412C1806.79 405.125 1807.7 398.979 1809.54 393.562C1811.37 388.104 1813.95 383.458 1817.29 379.625C1820.66 375.75 1824.64 372.812 1829.22 370.812C1833.85 368.771 1838.95 367.75 1844.54 367.75C1850.16 367.75 1855.29 368.771 1859.91 370.812C1864.54 372.812 1868.52 375.75 1871.85 379.625C1875.18 383.458 1877.75 388.104 1879.54 393.562C1881.37 398.979 1882.29 405.125 1882.29 412ZM1866.6 417V411.875C1866.6 406.792 1866.1 402.312 1865.1 398.438C1864.14 394.521 1862.7 391.25 1860.79 388.625C1858.91 385.958 1856.6 383.958 1853.85 382.625C1851.1 381.25 1848 380.562 1844.54 380.562C1841.08 380.562 1838 381.25 1835.29 382.625C1832.58 383.958 1830.27 385.958 1828.35 388.625C1826.47 391.25 1825.04 394.521 1824.04 398.438C1823.04 402.312 1822.54 406.792 1822.54 411.875V417C1822.54 422.083 1823.04 426.583 1824.04 430.5C1825.04 434.417 1826.5 437.729 1828.41 440.438C1830.37 443.104 1832.7 445.125 1835.41 446.5C1838.12 447.833 1841.2 448.5 1844.66 448.5C1848.16 448.5 1851.27 447.833 1853.97 446.5C1856.68 445.125 1858.97 443.104 1860.85 440.438C1862.72 437.729 1864.14 434.417 1865.1 430.5C1866.1 426.583 1866.6 422.083 1866.6 417ZM1995.76 369V460H1980.08L1939.26 394.812V460H1923.58V369H1939.26L1980.2 434.312V369H1995.76Z" fill="#36D1C2"/>
<path d="M1220 558.375H1235.62C1235.12 564.333 1233.46 569.646 1230.62 574.312C1227.79 578.938 1223.81 582.583 1218.69 585.25C1213.56 587.917 1207.33 589.25 1200 589.25C1194.38 589.25 1189.31 588.25 1184.81 586.25C1180.31 584.208 1176.46 581.333 1173.25 577.625C1170.04 573.875 1167.58 569.354 1165.88 564.062C1164.21 558.771 1163.38 552.854 1163.38 546.312V538.75C1163.38 532.208 1164.23 526.292 1165.94 521C1167.69 515.708 1170.19 511.188 1173.44 507.438C1176.69 503.646 1180.58 500.75 1185.12 498.75C1189.71 496.75 1194.85 495.75 1200.56 495.75C1207.81 495.75 1213.94 497.083 1218.94 499.75C1223.94 502.417 1227.81 506.104 1230.56 510.812C1233.35 515.521 1235.06 520.917 1235.69 527H1220.06C1219.65 523.083 1218.73 519.729 1217.31 516.938C1215.94 514.146 1213.9 512.021 1211.19 510.562C1208.48 509.062 1204.94 508.312 1200.56 508.312C1196.98 508.312 1193.85 508.979 1191.19 510.312C1188.52 511.646 1186.29 513.604 1184.5 516.188C1182.71 518.771 1181.35 521.958 1180.44 525.75C1179.56 529.5 1179.12 533.792 1179.12 538.625V546.312C1179.12 550.896 1179.52 555.062 1180.31 558.812C1181.15 562.521 1182.4 565.708 1184.06 568.375C1185.77 571.042 1187.94 573.104 1190.56 574.562C1193.19 576.021 1196.33 576.75 1200 576.75C1204.46 576.75 1208.06 576.042 1210.81 574.625C1213.6 573.208 1215.71 571.146 1217.12 568.438C1218.58 565.688 1219.54 562.333 1220 558.375ZM1335.24 540V545C1335.24 551.875 1334.34 558.042 1332.55 563.5C1330.76 568.958 1328.2 573.604 1324.86 577.438C1321.57 581.271 1317.61 584.208 1312.99 586.25C1308.36 588.25 1303.24 589.25 1297.61 589.25C1292.03 589.25 1286.93 588.25 1282.3 586.25C1277.72 584.208 1273.74 581.271 1270.36 577.438C1266.99 573.604 1264.36 568.958 1262.49 563.5C1260.65 558.042 1259.74 551.875 1259.74 545V540C1259.74 533.125 1260.65 526.979 1262.49 521.562C1264.32 516.104 1266.9 511.458 1270.24 507.625C1273.61 503.75 1277.59 500.812 1282.18 498.812C1286.8 496.771 1291.9 495.75 1297.49 495.75C1303.11 495.75 1308.24 496.771 1312.86 498.812C1317.49 500.812 1321.47 503.75 1324.8 507.625C1328.13 511.458 1330.7 516.104 1332.49 521.562C1334.32 526.979 1335.24 533.125 1335.24 540ZM1319.55 545V539.875C1319.55 534.792 1319.05 530.312 1318.05 526.438C1317.09 522.521 1315.65 519.25 1313.74 516.625C1311.86 513.958 1309.55 511.958 1306.8 510.625C1304.05 509.25 1300.95 508.562 1297.49 508.562C1294.03 508.562 1290.95 509.25 1288.24 510.625C1285.53 511.958 1283.22 513.958 1281.3 516.625C1279.43 519.25 1277.99 522.521 1276.99 526.438C1275.99 530.312 1275.49 534.792 1275.49 539.875V545C1275.49 550.083 1275.99 554.583 1276.99 558.5C1277.99 562.417 1279.45 565.729 1281.36 568.438C1283.32 571.104 1285.65 573.125 1288.36 574.5C1291.07 575.833 1294.15 576.5 1297.61 576.5C1301.11 576.5 1304.22 575.833 1306.93 574.5C1309.63 573.125 1311.93 571.104 1313.8 568.438C1315.68 565.729 1317.09 562.417 1318.05 558.5C1319.05 554.583 1319.55 550.083 1319.55 545ZM1420.73 575.562V588H1375.04V575.562H1420.73ZM1379.41 497V588H1363.73V497H1379.41ZM1502.65 575.562V588H1456.96V575.562H1502.65ZM1461.34 497V588H1445.65V497H1461.34ZM1564.26 509.125L1537.08 588H1520.64L1554.89 497H1565.39L1564.26 509.125ZM1587.01 588L1559.76 509.125L1558.58 497H1569.14L1603.51 588H1587.01ZM1585.7 554.25V566.688H1536.2V554.25H1585.7ZM1660.62 546.875H1637.44L1637.31 535.438H1657.56C1660.98 535.438 1663.88 534.938 1666.25 533.938C1668.67 532.896 1670.5 531.417 1671.75 529.5C1673 527.542 1673.62 525.188 1673.62 522.438C1673.62 519.396 1673.04 516.917 1671.88 515C1670.71 513.083 1668.92 511.688 1666.5 510.812C1664.12 509.938 1661.08 509.5 1657.38 509.5H1642.19V588H1626.5V497H1657.38C1662.38 497 1666.83 497.479 1670.75 498.438C1674.71 499.396 1678.06 500.896 1680.81 502.938C1683.6 504.938 1685.71 507.479 1687.12 510.562C1688.58 513.646 1689.31 517.312 1689.31 521.562C1689.31 525.312 1688.42 528.75 1686.62 531.875C1684.83 534.958 1682.19 537.479 1678.69 539.438C1675.19 541.396 1670.83 542.562 1665.62 542.938L1660.62 546.875ZM1659.94 588H1632.5L1639.56 575.562H1659.94C1663.48 575.562 1666.44 574.979 1668.81 573.812C1671.19 572.604 1672.96 570.958 1674.12 568.875C1675.33 566.75 1675.94 564.271 1675.94 561.438C1675.94 558.479 1675.42 555.917 1674.38 553.75C1673.33 551.542 1671.69 549.854 1669.44 548.688C1667.19 547.479 1664.25 546.875 1660.62 546.875H1643L1643.12 535.438H1666.06L1669.62 539.75C1674.62 539.917 1678.73 541.021 1681.94 543.062C1685.19 545.104 1687.6 547.75 1689.19 551C1690.77 554.25 1691.56 557.75 1691.56 561.5C1691.56 567.292 1690.29 572.146 1687.75 576.062C1685.25 579.979 1681.65 582.958 1676.94 585C1672.23 587 1666.56 588 1659.94 588ZM1792.74 540V545C1792.74 551.875 1791.84 558.042 1790.05 563.5C1788.26 568.958 1785.7 573.604 1782.36 577.438C1779.07 581.271 1775.11 584.208 1770.49 586.25C1765.86 588.25 1760.74 589.25 1755.11 589.25C1749.53 589.25 1744.42 588.25 1739.8 586.25C1735.22 584.208 1731.24 581.271 1727.86 577.438C1724.49 573.604 1721.86 568.958 1719.99 563.5C1718.15 558.042 1717.24 551.875 1717.24 545V540C1717.24 533.125 1718.15 526.979 1719.99 521.562C1721.82 516.104 1724.4 511.458 1727.74 507.625C1731.11 503.75 1735.09 500.812 1739.67 498.812C1744.3 496.771 1749.4 495.75 1754.99 495.75C1760.61 495.75 1765.74 496.771 1770.36 498.812C1774.99 500.812 1778.97 503.75 1782.3 507.625C1785.63 511.458 1788.2 516.104 1789.99 521.562C1791.82 526.979 1792.74 533.125 1792.74 540ZM1777.05 545V539.875C1777.05 534.792 1776.55 530.312 1775.55 526.438C1774.59 522.521 1773.15 519.25 1771.24 516.625C1769.36 513.958 1767.05 511.958 1764.3 510.625C1761.55 509.25 1758.45 508.562 1754.99 508.562C1751.53 508.562 1748.45 509.25 1745.74 510.625C1743.03 511.958 1740.72 513.958 1738.8 516.625C1736.92 519.25 1735.49 522.521 1734.49 526.438C1733.49 530.312 1732.99 534.792 1732.99 539.875V545C1732.99 550.083 1733.49 554.583 1734.49 558.5C1735.49 562.417 1736.95 565.729 1738.86 568.438C1740.82 571.104 1743.15 573.125 1745.86 574.5C1748.57 575.833 1751.65 576.5 1755.11 576.5C1758.61 576.5 1761.72 575.833 1764.42 574.5C1767.13 573.125 1769.42 571.104 1771.3 568.438C1773.17 565.729 1774.59 562.417 1775.55 558.5C1776.55 554.583 1777.05 550.083 1777.05 545ZM1821.22 497H1853.41C1860.33 497 1866.22 498.042 1871.1 500.125C1875.97 502.208 1879.7 505.292 1882.29 509.375C1884.91 513.417 1886.22 518.417 1886.22 524.375C1886.22 528.917 1885.39 532.917 1883.72 536.375C1882.06 539.833 1879.7 542.75 1876.66 545.125C1873.62 547.458 1870 549.271 1865.79 550.562L1861.04 552.875H1832.1L1831.97 540.438H1853.66C1857.41 540.438 1860.54 539.771 1863.04 538.438C1865.54 537.104 1867.41 535.292 1868.66 533C1869.95 530.667 1870.6 528.042 1870.6 525.125C1870.6 521.958 1869.97 519.208 1868.72 516.875C1867.52 514.5 1865.64 512.688 1863.1 511.438C1860.56 510.146 1857.33 509.5 1853.41 509.5H1836.91V588H1821.22V497ZM1873.16 588L1851.79 547.125L1868.22 547.062L1889.91 587.188V588H1873.16ZM1950.09 509.125L1922.9 588H1906.46L1940.71 497H1951.21L1950.09 509.125ZM1972.84 588L1945.59 509.125L1944.4 497H1954.96L1989.34 588H1972.84ZM1971.53 554.25V566.688H1922.03V554.25H1971.53ZM2041.89 497V588H2026.33V497H2041.89ZM2070.45 497V509.5H1998.01V497H2070.45ZM2112 497V588H2096.31V497H2112ZM2175.49 571.375L2199.42 497H2216.74L2184.11 588H2172.42L2175.49 571.375ZM2153.36 497L2177.11 571.375L2180.36 588H2168.61L2136.11 497H2153.36ZM2299.29 575.562V588H2250.97V575.562H2299.29ZM2255.41 497V588H2239.72V497H2255.41ZM2292.97 535V547.25H2250.97V535H2292.97ZM2298.97 497V509.5H2250.97V497H2298.97Z" fill="#00171F"/>
<path fill-rule="evenodd" clip-rule="evenodd" d="M971 630.141V774.082C1043.51 768.397 1108.68 736.63 1157.16 688.157L1055.89 586.894C1033.38 609.413 1003.92 624.99 971 630.141ZM947.5 182C1029.12 182 1103.04 214.981 1156.66 268.343L1055.89 369.106C1028.03 341.237 989.526 324 947 324C886.87 324 834.788 358.462 809.43 408.713C797.67 355.792 772.723 307.836 738.216 268.471C791.842 215.033 865.813 182 947.5 182Z" fill="#00171F"/>
<path fill-rule="evenodd" clip-rule="evenodd" d="M496.5 774C579.003 774 653.635 740.303 707.385 685.922C672.531 645.624 647.631 596.479 636.506 542.309C611.932 594.71 558.704 631 497 631C411.948 631 343 562.052 343 477C343 391.948 411.948 323 497 323C582.052 323 651 391.948 651 477C651 477.409 650.998 477.818 650.995 478.227C650.993 478.484 650.991 478.742 650.987 479H651C651.27 642.523 783.914 775 947.5 775C947.667 775 947.833 775 948 775V631.997C947.667 631.999 947.333 632 947 632C862.281 632 793.541 563.592 793.003 479H793C793 478.833 793 478.667 793 478.5C793 478.333 793 478.167 793 478.001C793 477.834 793 477.667 793 477.5C793 313.748 660.252 181 496.5 181C332.748 181 200 313.748 200 477.5C200 641.252 332.748 774 496.5 774Z" fill="#36D1C2"/>
<path d="M1186.48 173.271V196.021H1182.58V173.271H1186.48ZM1193.62 173.271V176.396H1175.51V173.271H1193.62ZM1198.21 173.271H1201.71L1208.29 190.818L1214.85 173.271H1218.35L1209.66 196.021H1206.88L1198.21 173.271ZM1196.62 173.271H1199.94L1200.52 188.459V196.021H1196.62V173.271ZM1216.62 173.271H1219.96V196.021H1216.04V188.459L1216.62 173.271Z" fill="#00171F"/>
<circle cx="1199" cy="183" r="39" stroke="#00171F" stroke-width="6"/>
</svg>
