<svg xmlns="http://www.w3.org/2000/svg" width="2103" height="634" viewBox="0 0 2103 634" fill="none"><path d="M1001.69 240.125L974.5 319H958.062L992.312 228H1002.81L1001.69 240.125ZM1024.44 319L997.188 240.125L996 228H1006.56L1040.94 319H1024.44ZM1023.12 285.25V297.688H973.625V285.25H1023.12ZM1148.91 228V319H1133.22L1092.41 253.812V319H1076.72V228H1092.41L1133.35 293.312V228H1148.91ZM1219.64 319H1200.2L1200.32 306.562H1219.64C1225.26 306.562 1229.97 305.333 1233.76 302.875C1237.6 300.417 1240.47 296.896 1242.39 292.312C1244.35 287.729 1245.32 282.271 1245.32 275.938V271C1245.32 266.083 1244.76 261.729 1243.64 257.938C1242.55 254.146 1240.93 250.958 1238.76 248.375C1236.64 245.792 1234.01 243.833 1230.89 242.5C1227.8 241.167 1224.24 240.5 1220.2 240.5H1199.82V228H1220.2C1226.24 228 1231.76 229.021 1236.76 231.062C1241.76 233.062 1246.07 235.958 1249.7 239.75C1253.37 243.542 1256.18 248.083 1258.14 253.375C1260.1 258.667 1261.07 264.583 1261.07 271.125V275.938C1261.07 282.479 1260.1 288.396 1258.14 293.688C1256.18 298.979 1253.37 303.521 1249.7 307.312C1246.03 311.062 1241.66 313.958 1236.57 316C1231.53 318 1225.89 319 1219.64 319ZM1208.89 228V319H1193.2V228H1208.89ZM1361.99 306.562V319H1313.67V306.562H1361.99ZM1318.11 228V319H1302.42V228H1318.11ZM1355.67 266V278.25H1313.67V266H1355.67ZM1361.67 228V240.5H1313.67V228H1361.67ZM1400.4 228H1432.59C1439.5 228 1445.4 229.042 1450.27 231.125C1455.15 233.208 1458.88 236.292 1461.46 240.375C1464.09 244.417 1465.4 249.417 1465.4 255.375C1465.4 259.917 1464.57 263.917 1462.9 267.375C1461.23 270.833 1458.88 273.75 1455.84 276.125C1452.8 278.458 1449.17 280.271 1444.96 281.562L1440.21 283.875H1411.27L1411.15 271.438H1432.84C1436.59 271.438 1439.71 270.771 1442.21 269.438C1444.71 268.104 1446.59 266.292 1447.84 264C1449.13 261.667 1449.77 259.042 1449.77 256.125C1449.77 252.958 1449.15 250.208 1447.9 247.875C1446.69 245.5 1444.82 243.688 1442.27 242.438C1439.73 241.146 1436.5 240.5 1432.59 240.5H1416.09V319H1400.4V228ZM1452.34 319L1430.96 278.125L1447.4 278.062L1469.09 318.188V319H1452.34ZM1554.5 295.562C1554.5 293.688 1554.21 292.021 1553.62 290.562C1553.08 289.104 1552.1 287.771 1550.69 286.562C1549.27 285.354 1547.27 284.188 1544.69 283.062C1542.15 281.896 1538.9 280.708 1534.94 279.5C1530.6 278.167 1526.6 276.688 1522.94 275.062C1519.31 273.396 1516.15 271.479 1513.44 269.312C1510.73 267.104 1508.62 264.583 1507.12 261.75C1505.62 258.875 1504.88 255.562 1504.88 251.812C1504.88 248.104 1505.65 244.729 1507.19 241.688C1508.77 238.646 1511 236.021 1513.88 233.812C1516.79 231.562 1520.23 229.833 1524.19 228.625C1528.15 227.375 1532.52 226.75 1537.31 226.75C1544.06 226.75 1549.88 228 1554.75 230.5C1559.67 233 1563.44 236.354 1566.06 240.562C1568.73 244.771 1570.06 249.417 1570.06 254.5H1554.5C1554.5 251.5 1553.85 248.854 1552.56 246.562C1551.31 244.229 1549.4 242.396 1546.81 241.062C1544.27 239.729 1541.04 239.062 1537.12 239.062C1533.42 239.062 1530.33 239.625 1527.88 240.75C1525.42 241.875 1523.58 243.396 1522.38 245.312C1521.17 247.229 1520.56 249.396 1520.56 251.812C1520.56 253.521 1520.96 255.083 1521.75 256.5C1522.54 257.875 1523.75 259.167 1525.38 260.375C1527 261.542 1529.04 262.646 1531.5 263.688C1533.96 264.729 1536.85 265.729 1540.19 266.688C1545.23 268.188 1549.62 269.854 1553.38 271.688C1557.12 273.479 1560.25 275.521 1562.75 277.812C1565.25 280.104 1567.12 282.708 1568.38 285.625C1569.62 288.5 1570.25 291.771 1570.25 295.438C1570.25 299.271 1569.48 302.729 1567.94 305.812C1566.4 308.854 1564.19 311.458 1561.31 313.625C1558.48 315.75 1555.06 317.396 1551.06 318.562C1547.1 319.688 1542.69 320.25 1537.81 320.25C1533.44 320.25 1529.12 319.667 1524.88 318.5C1520.67 317.333 1516.83 315.562 1513.38 313.188C1509.92 310.771 1507.17 307.771 1505.12 304.188C1503.08 300.562 1502.06 296.333 1502.06 291.5H1517.75C1517.75 294.458 1518.25 296.979 1519.25 299.062C1520.29 301.146 1521.73 302.854 1523.56 304.188C1525.4 305.479 1527.52 306.438 1529.94 307.062C1532.4 307.688 1535.02 308 1537.81 308C1541.48 308 1544.54 307.479 1547 306.438C1549.5 305.396 1551.38 303.938 1552.62 302.062C1553.88 300.188 1554.5 298.021 1554.5 295.562ZM1682.29 271V276C1682.29 282.875 1681.39 289.042 1679.6 294.5C1677.81 299.958 1675.25 304.604 1671.91 308.438C1668.62 312.271 1664.66 315.208 1660.04 317.25C1655.41 319.25 1650.29 320.25 1644.66 320.25C1639.08 320.25 1633.97 319.25 1629.35 317.25C1624.77 315.208 1620.79 312.271 1617.41 308.438C1614.04 304.604 1611.41 299.958 1609.54 294.5C1607.7 289.042 1606.79 282.875 1606.79 276V271C1606.79 264.125 1607.7 257.979 1609.54 252.562C1611.37 247.104 1613.95 242.458 1617.29 238.625C1620.66 234.75 1624.64 231.812 1629.22 229.812C1633.85 227.771 1638.95 226.75 1644.54 226.75C1650.16 226.75 1655.29 227.771 1659.91 229.812C1664.54 231.812 1668.52 234.75 1671.85 238.625C1675.18 242.458 1677.75 247.104 1679.54 252.562C1681.37 257.979 1682.29 264.125 1682.29 271ZM1666.6 276V270.875C1666.6 265.792 1666.1 261.312 1665.1 257.438C1664.14 253.521 1662.7 250.25 1660.79 247.625C1658.91 244.958 1656.6 242.958 1653.85 241.625C1651.1 240.25 1648 239.562 1644.54 239.562C1641.08 239.562 1638 240.25 1635.29 241.625C1632.58 242.958 1630.27 244.958 1628.35 247.625C1626.47 250.25 1625.04 253.521 1624.04 257.438C1623.04 261.312 1622.54 265.792 1622.54 270.875V276C1622.54 281.083 1623.04 285.583 1624.04 289.5C1625.04 293.417 1626.5 296.729 1628.41 299.438C1630.37 302.104 1632.7 304.125 1635.41 305.5C1638.12 306.833 1641.2 307.5 1644.66 307.5C1648.16 307.5 1651.27 306.833 1653.97 305.5C1656.68 304.125 1658.97 302.104 1660.85 299.438C1662.72 296.729 1664.14 293.417 1665.1 289.5C1666.1 285.583 1666.6 281.083 1666.6 276ZM1795.76 228V319H1780.08L1739.26 253.812V319H1723.58V228H1739.26L1780.2 293.312V228H1795.76Z" fill="#36D1C2"></path><path d="M1020 417.375H1035.62C1035.12 423.333 1033.46 428.646 1030.62 433.312C1027.79 437.938 1023.81 441.583 1018.69 444.25C1013.56 446.917 1007.33 448.25 1000 448.25C994.375 448.25 989.312 447.25 984.812 445.25C980.312 443.208 976.458 440.333 973.25 436.625C970.042 432.875 967.583 428.354 965.875 423.062C964.208 417.771 963.375 411.854 963.375 405.312V397.75C963.375 391.208 964.229 385.292 965.938 380C967.688 374.708 970.188 370.188 973.438 366.438C976.688 362.646 980.583 359.75 985.125 357.75C989.708 355.75 994.854 354.75 1000.56 354.75C1007.81 354.75 1013.94 356.083 1018.94 358.75C1023.94 361.417 1027.81 365.104 1030.56 369.812C1033.35 374.521 1035.06 379.917 1035.69 386H1020.06C1019.65 382.083 1018.73 378.729 1017.31 375.938C1015.94 373.146 1013.9 371.021 1011.19 369.562C1008.48 368.062 1004.94 367.312 1000.56 367.312C996.979 367.312 993.854 367.979 991.188 369.312C988.521 370.646 986.292 372.604 984.5 375.188C982.708 377.771 981.354 380.958 980.438 384.75C979.562 388.5 979.125 392.792 979.125 397.625V405.312C979.125 409.896 979.521 414.062 980.312 417.812C981.146 421.521 982.396 424.708 984.062 427.375C985.771 430.042 987.938 432.104 990.562 433.562C993.188 435.021 996.333 435.75 1000 435.75C1004.46 435.75 1008.06 435.042 1010.81 433.625C1013.6 432.208 1015.71 430.146 1017.12 427.438C1018.58 424.688 1019.54 421.333 1020 417.375ZM1135.24 399V404C1135.24 410.875 1134.34 417.042 1132.55 422.5C1130.76 427.958 1128.2 432.604 1124.86 436.438C1121.57 440.271 1117.61 443.208 1112.99 445.25C1108.36 447.25 1103.24 448.25 1097.61 448.25C1092.03 448.25 1086.93 447.25 1082.3 445.25C1077.72 443.208 1073.74 440.271 1070.36 436.438C1066.99 432.604 1064.36 427.958 1062.49 422.5C1060.65 417.042 1059.74 410.875 1059.74 404V399C1059.74 392.125 1060.65 385.979 1062.49 380.562C1064.32 375.104 1066.9 370.458 1070.24 366.625C1073.61 362.75 1077.59 359.812 1082.18 357.812C1086.8 355.771 1091.9 354.75 1097.49 354.75C1103.11 354.75 1108.24 355.771 1112.86 357.812C1117.49 359.812 1121.47 362.75 1124.8 366.625C1128.13 370.458 1130.7 375.104 1132.49 380.562C1134.32 385.979 1135.24 392.125 1135.24 399ZM1119.55 404V398.875C1119.55 393.792 1119.05 389.312 1118.05 385.438C1117.09 381.521 1115.65 378.25 1113.74 375.625C1111.86 372.958 1109.55 370.958 1106.8 369.625C1104.05 368.25 1100.95 367.562 1097.49 367.562C1094.03 367.562 1090.95 368.25 1088.24 369.625C1085.53 370.958 1083.22 372.958 1081.3 375.625C1079.43 378.25 1077.99 381.521 1076.99 385.438C1075.99 389.312 1075.49 393.792 1075.49 398.875V404C1075.49 409.083 1075.99 413.583 1076.99 417.5C1077.99 421.417 1079.45 424.729 1081.36 427.438C1083.32 430.104 1085.65 432.125 1088.36 433.5C1091.07 434.833 1094.15 435.5 1097.61 435.5C1101.11 435.5 1104.22 434.833 1106.93 433.5C1109.63 432.125 1111.93 430.104 1113.8 427.438C1115.68 424.729 1117.09 421.417 1118.05 417.5C1119.05 413.583 1119.55 409.083 1119.55 404ZM1220.73 434.562V447H1175.04V434.562H1220.73ZM1179.41 356V447H1163.73V356H1179.41ZM1302.65 434.562V447H1256.96V434.562H1302.65ZM1261.34 356V447H1245.65V356H1261.34ZM1364.26 368.125L1337.08 447H1320.64L1354.89 356H1365.39L1364.26 368.125ZM1387.01 447L1359.76 368.125L1358.58 356H1369.14L1403.51 447H1387.01ZM1385.7 413.25V425.688H1336.2V413.25H1385.7ZM1460.62 405.875H1437.44L1437.31 394.438H1457.56C1460.98 394.438 1463.88 393.938 1466.25 392.938C1468.67 391.896 1470.5 390.417 1471.75 388.5C1473 386.542 1473.62 384.188 1473.62 381.438C1473.62 378.396 1473.04 375.917 1471.88 374C1470.71 372.083 1468.92 370.688 1466.5 369.812C1464.12 368.938 1461.08 368.5 1457.38 368.5H1442.19V447H1426.5V356H1457.38C1462.38 356 1466.83 356.479 1470.75 357.438C1474.71 358.396 1478.06 359.896 1480.81 361.938C1483.6 363.938 1485.71 366.479 1487.12 369.562C1488.58 372.646 1489.31 376.312 1489.31 380.562C1489.31 384.312 1488.42 387.75 1486.62 390.875C1484.83 393.958 1482.19 396.479 1478.69 398.438C1475.19 400.396 1470.83 401.562 1465.62 401.938L1460.62 405.875ZM1459.94 447H1432.5L1439.56 434.562H1459.94C1463.48 434.562 1466.44 433.979 1468.81 432.812C1471.19 431.604 1472.96 429.958 1474.12 427.875C1475.33 425.75 1475.94 423.271 1475.94 420.438C1475.94 417.479 1475.42 414.917 1474.38 412.75C1473.33 410.542 1471.69 408.854 1469.44 407.688C1467.19 406.479 1464.25 405.875 1460.62 405.875H1443L1443.12 394.438H1466.06L1469.62 398.75C1474.62 398.917 1478.73 400.021 1481.94 402.062C1485.19 404.104 1487.6 406.75 1489.19 410C1490.77 413.25 1491.56 416.75 1491.56 420.5C1491.56 426.292 1490.29 431.146 1487.75 435.062C1485.25 438.979 1481.65 441.958 1476.94 444C1472.23 446 1466.56 447 1459.94 447ZM1592.74 399V404C1592.74 410.875 1591.84 417.042 1590.05 422.5C1588.26 427.958 1585.7 432.604 1582.36 436.438C1579.07 440.271 1575.11 443.208 1570.49 445.25C1565.86 447.25 1560.74 448.25 1555.11 448.25C1549.53 448.25 1544.42 447.25 1539.8 445.25C1535.22 443.208 1531.24 440.271 1527.86 436.438C1524.49 432.604 1521.86 427.958 1519.99 422.5C1518.15 417.042 1517.24 410.875 1517.24 404V399C1517.24 392.125 1518.15 385.979 1519.99 380.562C1521.82 375.104 1524.4 370.458 1527.74 366.625C1531.11 362.75 1535.09 359.812 1539.67 357.812C1544.3 355.771 1549.4 354.75 1554.99 354.75C1560.61 354.75 1565.74 355.771 1570.36 357.812C1574.99 359.812 1578.97 362.75 1582.3 366.625C1585.63 370.458 1588.2 375.104 1589.99 380.562C1591.82 385.979 1592.74 392.125 1592.74 399ZM1577.05 404V398.875C1577.05 393.792 1576.55 389.312 1575.55 385.438C1574.59 381.521 1573.15 378.25 1571.24 375.625C1569.36 372.958 1567.05 370.958 1564.3 369.625C1561.55 368.25 1558.45 367.562 1554.99 367.562C1551.53 367.562 1548.45 368.25 1545.74 369.625C1543.03 370.958 1540.72 372.958 1538.8 375.625C1536.92 378.25 1535.49 381.521 1534.49 385.438C1533.49 389.312 1532.99 393.792 1532.99 398.875V404C1532.99 409.083 1533.49 413.583 1534.49 417.5C1535.49 421.417 1536.95 424.729 1538.86 427.438C1540.82 430.104 1543.15 432.125 1545.86 433.5C1548.57 434.833 1551.65 435.5 1555.11 435.5C1558.61 435.5 1561.72 434.833 1564.42 433.5C1567.13 432.125 1569.42 430.104 1571.3 427.438C1573.17 424.729 1574.59 421.417 1575.55 417.5C1576.55 413.583 1577.05 409.083 1577.05 404ZM1621.22 356H1653.41C1660.33 356 1666.22 357.042 1671.1 359.125C1675.97 361.208 1679.7 364.292 1682.29 368.375C1684.91 372.417 1686.22 377.417 1686.22 383.375C1686.22 387.917 1685.39 391.917 1683.72 395.375C1682.06 398.833 1679.7 401.75 1676.66 404.125C1673.62 406.458 1670 408.271 1665.79 409.562L1661.04 411.875H1632.1L1631.97 399.438H1653.66C1657.41 399.438 1660.54 398.771 1663.04 397.438C1665.54 396.104 1667.41 394.292 1668.66 392C1669.95 389.667 1670.6 387.042 1670.6 384.125C1670.6 380.958 1669.97 378.208 1668.72 375.875C1667.52 373.5 1665.64 371.688 1663.1 370.438C1660.56 369.146 1657.33 368.5 1653.41 368.5H1636.91V447H1621.22V356ZM1673.16 447L1651.79 406.125L1668.22 406.062L1689.91 446.188V447H1673.16ZM1750.09 368.125L1722.9 447H1706.46L1740.71 356H1751.21L1750.09 368.125ZM1772.84 447L1745.59 368.125L1744.4 356H1754.96L1789.34 447H1772.84ZM1771.53 413.25V425.688H1722.03V413.25H1771.53ZM1841.89 356V447H1826.33V356H1841.89ZM1870.45 356V368.5H1798.01V356H1870.45ZM1912 356V447H1896.31V356H1912ZM1975.49 430.375L1999.42 356H2016.74L1984.11 447H1972.42L1975.49 430.375ZM1953.36 356L1977.11 430.375L1980.36 447H1968.61L1936.11 356H1953.36ZM2099.29 434.562V447H2050.97V434.562H2099.29ZM2055.41 356V447H2039.72V356H2055.41ZM2092.97 394V406.25H2050.97V394H2092.97ZM2098.97 356V368.5H2050.97V356H2098.97Z" fill="white"></path><path fill-rule="evenodd" clip-rule="evenodd" d="M771 489.141V633.082C843.507 627.397 908.685 595.63 957.157 547.157L855.894 445.894C833.376 468.413 803.916 483.99 771 489.141ZM747.5 41C829.122 41 903.041 73.981 956.657 127.343L855.894 228.106C828.026 200.237 789.526 183 747 183C686.87 183 634.788 217.462 609.43 267.713C597.67 214.792 572.723 166.836 538.216 127.471C591.842 74.0335 665.813 41 747.5 41Z" fill="white"></path><path fill-rule="evenodd" clip-rule="evenodd" d="M296.5 633C379.003 633 453.635 599.303 507.385 544.922C472.531 504.624 447.631 455.479 436.506 401.309C411.932 453.71 358.704 490 297 490C211.948 490 143 421.052 143 336C143 250.948 211.948 182 297 182C382.052 182 451 250.948 451 336C451 336.409 450.998 336.818 450.995 337.227C450.993 337.484 450.991 337.742 450.987 338H451C451.27 501.523 583.914 634 747.5 634C747.667 634 747.833 634 748 634V490.997C747.667 490.999 747.333 491 747 491C662.281 491 593.541 422.592 593.003 338H593C593 337.833 593 337.667 593 337.5C593 337.333 593 337.167 593 337.001C593 336.834 593 336.667 593 336.5C593 172.748 460.252 40 296.5 40C132.748 40 0 172.748 0 336.5C0 500.252 132.748 633 296.5 633Z" fill="#36D1C2"></path><path d="M986.475 32.2715V55.0215H982.584V32.2715H986.475ZM993.616 32.2715V35.3965H975.506V32.2715H993.616ZM998.209 32.2715H1001.71L1008.29 49.8184L1014.85 32.2715H1018.35L1009.66 55.0215H1006.88L998.209 32.2715ZM996.616 32.2715H999.944L1000.52 47.459V55.0215H996.616V32.2715ZM1016.62 32.2715H1019.96V55.0215H1016.04V47.459L1016.62 32.2715Z" fill="white"></path><circle cx="999" cy="42" r="39" stroke="white" stroke-width="6"></circle></svg>